<svg id="BANCOS" xmlns="http://www.w3.org/2000/svg" viewBox="0 0 32 32"><title>L-BBVAESMMXXX</title><g id="L-BBVAESMMXXX"><path d="M19.53,1.45,9.5,20.36,5.92,27.12A15,15,0,1,0,19.53,1.45Z" style="fill:#004481"/><path d="M16,1a15,15,0,0,0-10,26.11L9.5,20.36l10-18.92A14.81,14.81,0,0,0,16,1Z" style="fill:#1973b8"/><polygon points="5.92 27.12 9.5 20.36 5.91 27.11 5.92 27.12" style="fill:#004481"/><path id="A" d="M10.81,23.35,15.74,14a.3.3,0,0,1,.52,0l4.93,9.39a.29.29,0,0,0,.25.15h2.39a.22.22,0,0,0,.19-.32L16.25,8.65a.28.28,0,0,0-.5,0L8,23.18a.22.22,0,0,0,.19.32h2.39A.28.28,0,0,0,10.81,23.35Z" style="fill:#fff"/></g></svg>